<?xml version="1.0" encoding="UTF-8"?>
<svg id="Layer_2" data-name="Layer 2" xmlns="http://www.w3.org/2000/svg" viewBox="0 0 178.01 188.73">
  <defs>
    <style>
      .cls-1 {
        fill: #fff;
      }
    </style>
  </defs>
  <g id="Layer_1-2" data-name="Layer 1">
    <g>
      <path class="cls-1" d="m177.95,121.69c-.04.18-.09.36-.16.54-.07.18-.15.35-.25.52-.1.17-.21.34-.33.51-.13.17-.27.34-.43.51-.16.18-.34.35-.54.52-.21.19-.45.37-.7.54-.28.2-.59.4-.91.58-.41.24-.86.47-1.34.68-.99.45-2.11.85-3.34,1.19-.33.09-.67.18-1.02.26-.24.06-.48.11-.73.17-1.66.36-3.31.73-4.94,1.11-2.88.68-5.7,1.4-8.45,2.16-9.97,2.74-19.08,5.99-27.14,9.66-3.89,1.77-7.54,3.64-10.91,5.59-2.68,1.55-5.19,3.15-7.52,4.81-1.63,1.16-3.17,2.34-4.63,3.55-.19.16-.4.32-.62.48-.3.21-.61.41-.95.61-.43.25-.89.48-1.38.71-1,.45-2.12.85-3.34,1.19-.32.09-.65.17-.99.25-1.17.28-2.42.5-3.72.65-.6.07-1.21.13-1.82.17-.49.03-.98.06-1.48.07-.38.01-.77.02-1.15.02-.06,0-.13,0-.19,0-.45,0-.89-.01-1.33-.03-.43-.02-.85-.04-1.26-.07-.41-.03-.81-.06-1.21-.1-.4-.04-.8-.09-1.2-.14-.4-.05-.8-.11-1.19-.18-.41-.07-.81-.14-1.21-.23-.44-.09-.86-.19-1.28-.29-.47-.12-.93-.25-1.37-.38-.56-.17-1.1-.36-1.62-.56-1.57-.61-2.88-1.35-3.87-2.18-7.82-6.5-18.3-12.32-30.82-17.22-4.18-1.63-8.58-3.16-13.19-4.58-3.66-1.13-7.45-2.18-11.36-3.16-2.68-.67-5.43-1.31-8.22-1.91-.38-.08-.75-.17-1.11-.26-.5-.12-.97-.26-1.44-.4-.58-.18-1.14-.37-1.67-.58-3.46-1.36-5.6-3.25-5.6-5.29v29.98c0,2.04,2.14,3.94,5.6,5.29.53.21,1.08.4,1.67.58.46.14.94.28,1.44.4.36.09.73.18,1.11.26,2.79.6,5.53,1.24,8.22,1.91,3.91.98,7.7,2.04,11.36,3.16,4.61,1.42,9.02,2.95,13.19,4.58,12.53,4.9,23,10.72,30.82,17.22.99.83,2.3,1.56,3.87,2.17.51.2,1.05.39,1.62.56.44.14.9.26,1.37.38.41.1.84.2,1.28.29.4.08.8.16,1.21.23.39.07.79.12,1.19.18.39.05.79.1,1.2.14.4.04.8.07,1.21.1.42.03.84.05,1.26.07.44.02.88.03,1.33.03.06,0,.13,0,.19,0,.39,0,.77,0,1.15-.02.5-.01,1-.04,1.48-.07.62-.04,1.23-.1,1.82-.17,1.3-.15,2.55-.37,3.72-.65.34-.08.67-.16.99-.25,1.22-.33,2.34-.73,3.34-1.19.49-.22.95-.46,1.38-.71.34-.2.66-.4.95-.61.22-.16.43-.32.62-.48,1.45-1.21,3-2.39,4.63-3.55,2.33-1.66,4.84-3.26,7.52-4.81,3.38-1.95,7.03-3.82,10.91-5.59,8.06-3.67,17.18-6.91,27.14-9.66,2.75-.76,5.57-1.48,8.45-2.16,1.63-.38,3.27-.76,4.94-1.11.25-.05.49-.11.73-.16.35-.08.69-.17,1.02-.26,1.23-.34,2.35-.74,3.34-1.19.48-.22.93-.45,1.34-.69.33-.19.63-.38.91-.58.25-.18.48-.36.7-.54.19-.17.37-.34.54-.52.16-.17.3-.34.43-.51.12-.17.24-.34.33-.51.1-.17.18-.35.25-.52.07-.18.12-.36.16-.54.03-.16.05-.32.06-.49,0-.04,0-.07,0-.11v-29.98s0,.07,0,.11c0,.16-.03.33-.06.49Z"/>
      <path class="cls-1" d="m177.95,81.8c-.04.18-.09.36-.16.54-.07.18-.15.35-.25.52-.1.17-.21.34-.33.51-.13.17-.27.34-.43.51-.16.18-.34.35-.54.52-.21.19-.45.37-.7.54-.28.2-.59.4-.91.58-.41.24-.86.47-1.34.68-.99.45-2.11.85-3.34,1.19-.33.09-.67.18-1.02.26-.24.06-.48.11-.73.17-1.66.36-3.31.73-4.94,1.11-2.88.68-5.7,1.4-8.45,2.16-9.97,2.74-19.08,5.99-27.14,9.66-3.89,1.77-7.54,3.64-10.91,5.59-2.68,1.55-5.19,3.15-7.52,4.81-1.63,1.16-3.17,2.34-4.63,3.55-.19.16-.4.32-.62.48-.3.21-.61.41-.95.61-.43.25-.89.48-1.38.71-1,.45-2.12.85-3.34,1.19-.32.09-.65.17-.99.25-1.17.28-2.42.5-3.72.65-.6.07-1.21.13-1.82.17-.49.03-.98.06-1.48.07-.38.01-.77.02-1.15.02-.06,0-.13,0-.19,0-.45,0-.89-.01-1.33-.03-.43-.02-.85-.04-1.26-.07-.41-.03-.81-.06-1.21-.1-.4-.04-.8-.09-1.2-.14-.4-.05-.8-.11-1.19-.18-.41-.07-.81-.14-1.21-.23-.44-.09-.86-.19-1.28-.29-.47-.12-.93-.25-1.37-.38-.56-.17-1.1-.36-1.62-.56-1.57-.61-2.88-1.35-3.87-2.18-7.82-6.5-18.3-12.32-30.82-17.22-4.18-1.63-8.58-3.16-13.19-4.58-3.66-1.13-7.45-2.18-11.36-3.16-2.68-.67-5.43-1.31-8.22-1.91-.38-.08-.75-.17-1.11-.26-.5-.12-.97-.26-1.44-.4-.58-.18-1.14-.37-1.67-.58-3.46-1.36-5.6-3.25-5.6-5.29v29.35c0,2.04,2.14,3.94,5.6,5.29.53.21,1.08.4,1.67.58.46.14.94.28,1.44.4.36.09.73.18,1.11.26,2.79.6,5.53,1.24,8.22,1.91,3.91.98,7.7,2.04,11.36,3.16,4.61,1.42,9.02,2.95,13.19,4.58,12.53,4.9,23,10.72,30.82,17.22.99.83,2.3,1.56,3.87,2.17.51.2,1.05.39,1.62.56.44.14.9.26,1.37.38.41.1.84.2,1.28.29.4.08.8.16,1.21.23.39.07.79.12,1.19.18.39.05.79.1,1.2.14.4.04.8.07,1.21.1.42.03.84.05,1.26.07.44.02.88.03,1.33.03.06,0,.13,0,.19,0,.39,0,.77,0,1.15-.02.5-.01,1-.04,1.48-.07.62-.04,1.23-.1,1.82-.17,1.3-.15,2.55-.37,3.72-.65.34-.08.67-.16.99-.25,1.22-.33,2.34-.73,3.34-1.19.49-.22.95-.46,1.38-.71.34-.2.66-.4.95-.61.22-.16.43-.32.62-.48,1.45-1.21,3-2.39,4.63-3.55,2.33-1.66,4.84-3.26,7.52-4.81,3.38-1.95,7.03-3.82,10.91-5.59,8.06-3.67,17.18-6.91,27.14-9.66,2.75-.76,5.57-1.48,8.45-2.16,1.63-.38,3.27-.76,4.94-1.11.25-.05.49-.11.73-.16.35-.08.69-.17,1.02-.26,1.23-.34,2.35-.74,3.34-1.19.48-.22.93-.45,1.34-.69.33-.19.63-.38.91-.58.25-.18.48-.36.7-.54.19-.17.37-.34.54-.52.16-.17.3-.34.43-.51.12-.17.24-.34.33-.51.1-.17.18-.35.25-.52.07-.18.12-.36.16-.54.03-.16.05-.32.06-.49,0-.04,0-.07,0-.11v-29.35s0,.07,0,.11c0,.16-.03.33-.06.49Z"/>
      <path class="cls-1" d="m169.15,44.11c-26.46,5.69-48.35,14.9-61.63,25.92-3.88,3.25-10.76,5.2-18.38,5.2s-14.76-1.95-18.67-5.21c-13.27-11.02-35.16-20.22-61.62-25.91-3.68-.78-6.63-2-8.86-3.51v30.16c0,2.04,2.14,3.94,5.6,5.29.53.21,1.08.4,1.67.58.46.14.94.28,1.44.4.36.09.73.18,1.11.26,2.79.6,5.53,1.24,8.22,1.91,3.91.98,7.7,2.04,11.36,3.16,4.61,1.42,9.02,2.95,13.19,4.58,12.53,4.9,23,10.72,30.82,17.22.99.83,2.3,1.56,3.87,2.17.51.2,1.05.39,1.62.56.44.14.9.26,1.37.38.41.1.84.2,1.28.29.4.08.8.16,1.21.23.39.07.79.12,1.19.18.39.05.79.1,1.2.14.4.04.8.07,1.21.1.42.03.84.05,1.26.07.44.02.88.03,1.33.03.06,0,.13,0,.19,0,.39,0,.77,0,1.15-.02.5-.01,1-.04,1.48-.07.62-.04,1.23-.1,1.82-.17,1.3-.15,2.55-.37,3.72-.65.34-.08.67-.16.99-.25,1.22-.33,2.34-.73,3.34-1.19.49-.22.95-.46,1.38-.71.34-.2.66-.4.95-.61.22-.16.43-.32.62-.48,1.45-1.21,3-2.39,4.63-3.55,2.33-1.66,4.84-3.26,7.52-4.81,3.38-1.95,7.03-3.82,10.91-5.59,8.06-3.67,17.18-6.91,27.14-9.66,2.75-.76,5.57-1.48,8.45-2.16,1.63-.38,3.27-.76,4.94-1.11.25-.05.49-.11.73-.16.35-.08.69-.17,1.02-.26,1.23-.34,2.35-.74,3.34-1.19.48-.22.93-.45,1.34-.69.33-.19.63-.38.91-.58.25-.18.48-.36.7-.54.19-.17.37-.34.54-.52.16-.17.3-.34.43-.51.12-.17.24-.34.33-.51.1-.17.18-.35.25-.52.07-.18.12-.36.16-.54.03-.16.05-.32.06-.49,0-.04,0-.07,0-.11v-30.12c-2.23,1.56-5.18,2.78-8.86,3.57Z"/>
      <path class="cls-1" d="m76.33,63c1.84,1.55,6.51,3.09,12.81,3.09s10.76-1.6,12.53-3.08c14.62-12.14,37.29-21.76,65.57-27.84,3.17-.68,4.93-1.61,5.75-2.22-.76-.39-2.54-1.35-5.75-2.03-28.29-6.08-50.96-15.71-65.57-27.83-1.82-1.53-6.48-3.07-12.81-3.09-6.1.02-10.77,1.62-12.53,3.08C61.72,15.22,39.05,24.84,10.77,30.92c-3.05.65-4.79,1.54-5.66,2.14.93.63,2.78,1.49,5.65,2.11,28.29,6.08,50.96,15.7,65.56,27.83Z"/>
    </g>
  </g>
</svg>