<?xml version="1.0" encoding="UTF-8"?>
<svg id="Layer_2" data-name="Layer 2" xmlns="http://www.w3.org/2000/svg" viewBox="0 0 167.02 177.07">
  <defs>
    <style>
      .cls-1 {
        fill: #fff;
      }
    </style>
  </defs>
  <g id="Layer_1-2" data-name="Layer 1">
    <g>
      <path class="cls-1" d="m166.96,114.17c-.04.17-.09.34-.15.51-.06.17-.14.33-.23.49-.09.16-.2.32-.31.48-.12.16-.25.32-.4.48-.15.16-.32.33-.51.48-.2.17-.42.34-.65.51-.27.19-.55.37-.86.55-.39.22-.81.44-1.26.64-.92.42-1.98.79-3.13,1.11-.31.09-.63.17-.96.25-.22.05-.45.11-.69.15-1.56.34-3.1.68-4.63,1.04-2.7.64-5.35,1.31-7.93,2.02-9.35,2.58-17.9,5.62-25.47,9.06-3.65,1.66-7.07,3.41-10.24,5.24-2.51,1.45-4.87,2.96-7.06,4.51-1.53,1.09-2.98,2.2-4.34,3.33-.18.15-.38.3-.58.45-.28.2-.58.39-.89.57-.4.23-.84.45-1.3.66-.94.43-1.99.8-3.13,1.12-.3.08-.61.16-.93.24-1.1.26-2.27.47-3.49.61-.56.07-1.13.12-1.71.16-.46.03-.92.05-1.39.07-.36.01-.72.02-1.08.02-.06,0-.12,0-.18,0-.42,0-.84-.01-1.25-.03-.4-.01-.79-.04-1.18-.06-.38-.03-.76-.06-1.14-.1-.38-.04-.75-.08-1.12-.13-.38-.05-.75-.11-1.12-.17-.39-.06-.76-.14-1.14-.21-.41-.08-.81-.18-1.2-.27-.44-.11-.87-.23-1.29-.36-.53-.16-1.03-.34-1.52-.53-1.47-.58-2.7-1.27-3.63-2.04-7.34-6.09-17.17-11.56-28.92-16.16-3.92-1.53-8.05-2.97-12.38-4.3-3.44-1.06-6.99-2.05-10.66-2.97-2.52-.63-5.09-1.23-7.71-1.79-.35-.08-.7-.16-1.04-.24-.46-.12-.91-.24-1.35-.38-.55-.17-1.07-.35-1.56-.54-3.25-1.27-5.25-3.05-5.26-4.97v28.13c0,1.92,2.01,3.69,5.26,4.97.49.19,1.02.37,1.56.54.43.13.88.26,1.35.38.34.09.69.17,1.04.24,2.62.56,5.19,1.16,7.71,1.79,3.67.92,7.22,1.91,10.66,2.97,4.33,1.33,8.46,2.77,12.38,4.3,11.75,4.6,21.58,10.06,28.92,16.16.92.77,2.16,1.46,3.63,2.04.48.19.99.36,1.52.53.42.13.85.25,1.29.36.39.1.79.19,1.2.27.37.08.75.15,1.14.21.37.06.74.12,1.12.17.37.05.74.09,1.12.13.37.04.76.07,1.14.1.39.03.79.05,1.18.06.41.02.83.02,1.25.03.06,0,.12,0,.18,0,.36,0,.72,0,1.08-.02.47-.01.93-.04,1.39-.07.58-.04,1.15-.09,1.71-.16,1.22-.15,2.39-.35,3.49-.61.32-.07.62-.15.93-.24,1.14-.31,2.19-.69,3.13-1.11.46-.21.89-.43,1.3-.66.32-.18.62-.37.89-.57.21-.15.4-.3.58-.45,1.36-1.13,2.81-2.24,4.34-3.33,2.19-1.55,4.54-3.06,7.06-4.51,3.17-1.83,6.59-3.58,10.24-5.24,7.57-3.44,16.12-6.49,25.47-9.06,2.58-.71,5.23-1.39,7.93-2.02,1.53-.36,3.07-.71,4.63-1.04.23-.05.46-.1.69-.15.33-.08.65-.16.96-.25,1.15-.32,2.21-.69,3.13-1.11.45-.2.87-.42,1.26-.64.31-.18.59-.36.86-.55.23-.17.45-.34.65-.51.18-.16.35-.32.51-.49.15-.16.28-.32.4-.48.12-.16.22-.32.31-.48.09-.16.17-.32.23-.49.06-.17.11-.34.15-.51.03-.15.05-.3.06-.46,0-.03,0-.07,0-.1v-28.13s0,.07,0,.1c0,.15-.03.31-.06.46Z"/>
      <path class="cls-1" d="m166.96,76.74c-.04.17-.09.34-.15.51-.06.17-.14.33-.23.49-.09.16-.2.32-.31.48-.12.16-.25.32-.4.48-.15.16-.32.33-.51.48-.2.17-.42.34-.65.51-.27.19-.55.37-.86.55-.39.22-.81.44-1.26.64-.92.42-1.98.79-3.13,1.11-.31.09-.63.17-.96.25-.22.05-.45.11-.69.15-1.56.34-3.1.68-4.63,1.04-2.7.64-5.35,1.31-7.93,2.02-9.35,2.58-17.9,5.62-25.47,9.06-3.65,1.66-7.07,3.41-10.24,5.24-2.51,1.45-4.87,2.96-7.06,4.51-1.53,1.09-2.98,2.2-4.34,3.33-.18.15-.38.3-.58.45-.28.2-.58.39-.89.57-.4.23-.84.45-1.3.66-.94.43-1.99.8-3.13,1.12-.3.08-.61.16-.93.24-1.1.26-2.27.47-3.49.61-.56.07-1.13.12-1.71.16-.46.03-.92.05-1.39.07-.36.01-.72.02-1.08.02-.06,0-.12,0-.18,0-.42,0-.84-.01-1.25-.03-.4-.01-.79-.04-1.18-.06-.38-.03-.76-.06-1.14-.1-.38-.04-.75-.08-1.12-.13-.38-.05-.75-.11-1.12-.17-.39-.06-.76-.14-1.14-.21-.41-.08-.81-.18-1.2-.27-.44-.11-.87-.23-1.29-.36-.53-.16-1.03-.34-1.52-.53-1.47-.58-2.7-1.27-3.63-2.04-7.34-6.09-17.17-11.56-28.92-16.16-3.92-1.53-8.05-2.97-12.38-4.3-3.44-1.06-6.99-2.05-10.66-2.97-2.52-.63-5.09-1.23-7.71-1.79-.35-.08-.7-.16-1.04-.24-.46-.12-.91-.24-1.35-.38-.55-.17-1.07-.35-1.56-.54-3.25-1.27-5.25-3.05-5.26-4.97v27.54c0,1.92,2.01,3.69,5.26,4.97.49.19,1.02.38,1.56.54.43.13.88.26,1.35.38.34.09.69.17,1.04.24,2.62.56,5.19,1.16,7.71,1.79,3.67.92,7.22,1.91,10.66,2.97,4.33,1.33,8.46,2.77,12.38,4.3,11.75,4.6,21.58,10.06,28.92,16.16.92.77,2.16,1.46,3.63,2.04.48.19.99.36,1.52.53.42.13.85.25,1.29.36.39.1.79.19,1.2.27.37.08.75.15,1.14.21.37.06.74.12,1.12.17.37.05.74.09,1.12.13.37.04.76.07,1.14.1.39.03.79.05,1.18.06.41.02.83.02,1.25.03.06,0,.12,0,.18,0,.36,0,.72,0,1.08-.02.47-.01.93-.04,1.39-.07.58-.04,1.15-.09,1.71-.16,1.22-.15,2.39-.35,3.49-.61.32-.07.62-.15.93-.24,1.14-.31,2.19-.69,3.13-1.11.46-.21.89-.43,1.3-.66.32-.18.62-.37.89-.57.21-.15.4-.3.58-.45,1.36-1.13,2.81-2.24,4.34-3.33,2.19-1.55,4.54-3.06,7.06-4.51,3.17-1.83,6.59-3.58,10.24-5.24,7.57-3.44,16.12-6.49,25.47-9.06,2.58-.71,5.23-1.39,7.93-2.02,1.53-.36,3.07-.71,4.63-1.04.23-.05.46-.1.69-.15.33-.08.65-.16.96-.25,1.15-.32,2.21-.69,3.13-1.11.45-.2.87-.42,1.26-.64.31-.18.59-.36.86-.55.23-.17.45-.34.65-.51.18-.16.35-.32.51-.49.15-.16.28-.32.4-.48.12-.16.22-.32.31-.48.09-.16.17-.32.23-.49.06-.17.11-.34.15-.51.03-.15.05-.3.06-.46,0-.03,0-.07,0-.1v-27.54s0,.07,0,.1c0,.15-.03.31-.06.46Z"/>
      <path class="cls-1" d="m158.7,41.38c-24.83,5.34-45.37,13.98-57.82,24.32-3.64,3.05-10.1,4.88-17.25,4.88s-13.85-1.83-17.51-4.89c-12.45-10.34-32.99-18.97-57.81-24.31-3.45-.74-6.22-1.87-8.31-3.3v28.3c0,1.92,2.01,3.69,5.26,4.97.49.19,1.02.38,1.56.54.43.13.88.26,1.35.38.34.09.69.17,1.04.24,2.62.56,5.19,1.16,7.71,1.79,3.67.92,7.22,1.91,10.66,2.97,4.33,1.33,8.46,2.77,12.38,4.3,11.75,4.6,21.58,10.06,28.92,16.16.92.77,2.16,1.46,3.63,2.04.48.19.99.36,1.52.53.42.13.85.25,1.29.36.39.1.79.19,1.2.27.37.08.75.15,1.14.21.37.06.74.12,1.12.17.37.05.74.09,1.12.13.37.04.76.07,1.14.1.39.03.79.05,1.18.06.41.02.83.02,1.25.03.06,0,.12,0,.18,0,.36,0,.72,0,1.08-.02.47-.01.93-.04,1.39-.07.58-.04,1.15-.09,1.71-.16,1.22-.15,2.39-.35,3.49-.61.32-.07.62-.15.93-.24,1.14-.31,2.19-.69,3.13-1.11.46-.21.89-.43,1.3-.66.32-.18.62-.37.89-.57.21-.15.4-.3.58-.45,1.36-1.13,2.81-2.24,4.34-3.33,2.19-1.55,4.54-3.06,7.06-4.51,3.17-1.83,6.59-3.58,10.24-5.24,7.57-3.44,16.12-6.49,25.47-9.06,2.58-.71,5.23-1.39,7.93-2.02,1.53-.36,3.07-.71,4.63-1.04.23-.05.46-.1.69-.15.33-.08.65-.16.96-.25,1.15-.32,2.21-.69,3.13-1.11.45-.2.87-.42,1.26-.64.31-.18.59-.36.86-.55.23-.17.45-.34.65-.51.18-.16.35-.32.51-.49.15-.16.28-.32.4-.48.12-.16.22-.32.31-.48.09-.16.17-.32.23-.49.06-.17.11-.34.15-.51.03-.15.05-.3.06-.46,0-.03,0-.07,0-.1v-28.26c-2.09,1.46-4.86,2.61-8.31,3.35Z"/>
      <path class="cls-1" d="m71.61,59.11c1.73,1.45,6.11,2.9,12.02,2.9s10.09-1.5,11.75-2.89c13.71-11.39,34.98-20.42,61.52-26.12,2.97-.64,4.63-1.51,5.4-2.08-.71-.37-2.38-1.26-5.39-1.91-26.54-5.71-47.82-14.74-61.52-26.11-1.71-1.43-6.08-2.88-12.02-2.9-5.73.02-10.11,1.52-11.75,2.89-13.71,11.39-34.98,20.41-61.52,26.12-2.86.61-4.5,1.45-5.31,2.01.88.59,2.61,1.4,5.3,1.98,26.54,5.71,47.81,14.73,61.51,26.11Z"/>
    </g>
  </g>
</svg>