<?xml version="1.0" encoding="UTF-8"?>
<svg id="Layer_2" data-name="Layer 2" xmlns="http://www.w3.org/2000/svg" viewBox="0 0 761.41 188.73">
  <defs>
    <style>
      .cls-1 {
        fill: #fff;
      }

      .cls-2 {
        fill: #117293;
      }

      .cls-3 {
        fill: #00cfff;
      }

      .cls-4 {
        fill: #199ed8;
      }
    </style>
  </defs>
  <g id="Layer_1-2" data-name="Layer 1">
    <g>
      <g>
        <path class="cls-1" d="m278.23,34.96v34.5c-1.89-2.13-4.04-3.89-6.47-5.24-4.49-2.49-9.56-3.74-15.23-3.74-6.52,0-12.37,1.44-17.58,4.32-5.2,2.88-9.29,6.94-12.25,12.18-2.96,5.25-4.44,11.34-4.44,18.28s1.48,13.14,4.44,18.34c2.96,5.2,7.04,9.25,12.25,12.12,5.2,2.88,11.06,4.32,17.58,4.32,5.92,0,11.11-1.25,15.55-3.74,2.7-1.52,5.05-3.54,7.04-6.04v8.9h15.1V34.96h-15.99Zm-2.35,71.52c-1.82,3.26-4.23,5.76-7.23,7.49-3,1.74-6.41,2.6-10.22,2.6s-7.21-.87-10.22-2.6c-3-1.73-5.42-4.23-7.23-7.49-1.82-3.26-2.73-7-2.73-11.23s.91-8.06,2.73-11.23c1.82-3.17,4.23-5.63,7.23-7.36,3-1.73,6.41-2.6,10.22-2.6s7.21.87,10.22,2.6c3,1.74,5.41,4.19,7.23,7.36,1.82,3.17,2.73,6.92,2.73,11.23s-.91,7.98-2.73,11.23Z"/>
        <path class="cls-1" d="m363.65,67.58c-5.33-4.74-12.95-7.11-22.85-7.11-5.42,0-10.62.72-15.61,2.16-4.99,1.44-9.35,3.55-13.07,6.35l6.22,11.55c2.62-2.11,5.75-3.76,9.39-4.95,3.64-1.18,7.32-1.78,11.04-1.78,5.75,0,10.05,1.29,12.88,3.87,2.83,2.58,4.25,6.2,4.25,10.85v1.02h-17.64c-6.85,0-12.36.89-16.5,2.67-4.15,1.78-7.13,4.19-8.95,7.23-1.82,3.05-2.73,6.47-2.73,10.28s1.04,7.38,3.11,10.47c2.07,3.09,5.01,5.5,8.82,7.23,3.81,1.73,8.25,2.6,13.33,2.6,6.09,0,11.08-1.1,14.98-3.3,2.68-1.52,4.79-3.46,6.35-5.83v8.24h14.98v-39.73c0-9.81-2.67-17.09-8-21.83Zm-14.53,48.23c-3.09,1.78-6.58,2.67-10.47,2.67s-7.23-.84-9.52-2.54c-2.28-1.69-3.43-3.93-3.43-6.73,0-2.62.95-4.8,2.86-6.54,1.9-1.73,5.52-2.6,10.85-2.6h16.5v7.87c-1.44,3.47-3.7,6.09-6.79,7.87Z"/>
        <path class="cls-1" d="m427.96,114.17c-2.28,1.86-5.16,2.79-8.63,2.79-3.05,0-5.42-.89-7.11-2.67-1.69-1.78-2.54-4.27-2.54-7.49v-32.75h18.28v-12.69h-18.28v-14.98h-15.74v14.98h-11.17v12.69h11.17v33.25c0,7.45,2.03,13.1,6.09,16.94,4.06,3.85,9.81,5.77,17.26,5.77,2.79,0,5.54-.38,8.25-1.14,2.71-.76,5.03-1.9,6.98-3.43l-4.57-11.3Z"/>
        <path class="cls-1" d="m473,114.17c-2.28,1.86-5.16,2.79-8.63,2.79-3.05,0-5.42-.89-7.11-2.67-1.69-1.78-2.54-4.27-2.54-7.49v-32.75h18.28v-12.69h-18.28v-14.98h-15.74v14.98h-11.17v12.69h11.17v33.25c0,7.45,2.03,13.1,6.09,16.94,4.06,3.85,9.81,5.77,17.26,5.77,2.79,0,5.54-.38,8.25-1.14,2.71-.76,5.03-1.9,6.98-3.43l-4.57-11.3Z"/>
        <path class="cls-1" d="m536.88,67.58c-5.33-4.74-12.95-7.11-22.85-7.11-5.42,0-10.62.72-15.61,2.16-4.99,1.44-9.35,3.55-13.07,6.35l6.22,11.55c2.62-2.11,5.75-3.76,9.39-4.95,3.64-1.18,7.32-1.78,11.04-1.78,5.75,0,10.05,1.29,12.88,3.87,2.83,2.58,4.25,6.2,4.25,10.85v1.02h-17.64c-6.85,0-12.36.89-16.5,2.67-4.15,1.78-7.13,4.19-8.95,7.23-1.82,3.05-2.73,6.47-2.73,10.28s1.04,7.38,3.11,10.47c2.07,3.09,5.01,5.5,8.82,7.23,3.81,1.73,8.25,2.6,13.33,2.6,6.09,0,11.08-1.1,14.98-3.3,2.68-1.52,4.79-3.46,6.35-5.83v8.24h14.98v-39.73c0-9.81-2.67-17.09-8-21.83Zm-14.53,48.23c-3.09,1.78-6.58,2.67-10.47,2.67s-7.23-.84-9.52-2.54c-2.28-1.69-3.43-3.93-3.43-6.73,0-2.62.95-4.8,2.86-6.54,1.9-1.73,5.52-2.6,10.85-2.6h16.5v7.87c-1.44,3.47-3.7,6.09-6.79,7.87Z"/>
        <path class="cls-1" d="m631.12,75.2c-2.41-4.14-5.76-7.32-10.03-9.52-4.27-2.2-9.29-3.3-15.04-3.3-7.28,0-13.64,1.76-19.1,5.27-3.39,2.18-6.31,4.87-8.75,8.07l2.6-12.83h-6.22l-18.15,90.88h6.35l8.31-41.09c.51,1.74,1.17,3.36,1.97,4.85,2.11,3.93,5.22,6.94,9.33,9.01,4.1,2.07,9.03,3.11,14.79,3.11s10.53-.99,15.1-2.98c4.57-1.99,8.52-4.76,11.87-8.31,3.34-3.55,5.94-7.74,7.81-12.57,1.86-4.82,2.79-10.11,2.79-15.87s-1.21-10.58-3.62-14.72Zm-6.85,32.43c-2.67,5.12-6.33,9.12-10.98,11.99-4.66,2.88-9.99,4.32-15.99,4.32-7.45,0-13.24-1.95-17.39-5.84-4.15-3.89-6.22-9.35-6.22-16.37,0-6.51,1.35-12.31,4.06-17.39,2.71-5.08,6.41-9.05,11.11-11.93,4.7-2.88,10.01-4.32,15.93-4.32,7.44,0,13.22,1.93,17.33,5.77,4.1,3.85,6.16,9.33,6.16,16.44,0,6.43-1.33,12.21-4,17.33Z"/>
        <path class="cls-1" d="m673.32,66.95c-3.88,2.41-7.11,5.75-9.72,10.01l2.87-14.07h-6.22l-13.2,66.26h6.35l6.85-34.02c1.78-8.88,5.1-15.55,9.96-19.99,4.86-4.44,11.02-6.66,18.47-6.66.34,0,.68.02,1.02.06.34.04.68.06,1.02.06l1.14-6.22c-7.45,0-13.62,1.52-18.53,4.57Z"/>
        <path class="cls-1" d="m757.79,75.26c-2.41-4.1-5.8-7.28-10.15-9.52-4.36-2.24-9.54-3.36-15.55-3.36-7.36,0-13.9,1.74-19.61,5.2-5.71,3.47-10.2,8.19-13.45,14.15-3.26,5.97-4.89,12.76-4.89,20.37,0,5.58,1.21,10.45,3.62,14.6,2.41,4.15,5.82,7.34,10.22,9.58,4.4,2.24,9.56,3.36,15.48,3.36,7.36,0,13.9-1.73,19.61-5.2,5.71-3.47,10.2-8.19,13.45-14.15,3.26-5.97,4.89-12.76,4.89-20.37,0-5.67-1.21-10.55-3.62-14.66Zm-6.79,32.37c-2.71,5.12-6.39,9.12-11.04,11.99-4.65,2.88-9.99,4.32-15.99,4.32-7.45,0-13.22-1.95-17.32-5.84-4.11-3.89-6.16-9.35-6.16-16.37,0-6.43,1.35-12.18,4.06-17.26,2.71-5.08,6.41-9.08,11.11-11.99,4.7-2.92,10.01-4.38,15.93-4.38,7.44,0,13.22,1.93,17.32,5.77,4.1,3.85,6.16,9.33,6.16,16.44,0,6.43-1.35,12.21-4.06,17.33Z"/>
      </g>
      <g>
        <path class="cls-2" d="m177.95,121.69c-.04.18-.09.36-.16.54-.07.18-.15.35-.25.52-.1.17-.21.34-.33.51-.13.17-.27.34-.43.51-.16.18-.34.35-.54.52-.21.19-.45.37-.7.54-.28.2-.59.4-.91.58-.41.24-.86.47-1.34.68-.99.45-2.11.85-3.34,1.19-.33.09-.67.18-1.02.26-.24.06-.48.11-.73.17-1.66.36-3.31.73-4.94,1.11-2.88.68-5.7,1.4-8.45,2.16-9.97,2.74-19.08,5.99-27.14,9.66-3.89,1.77-7.54,3.64-10.91,5.59-2.68,1.55-5.19,3.15-7.52,4.81-1.63,1.16-3.17,2.34-4.63,3.55-.19.16-.4.32-.62.48-.3.21-.61.41-.95.61-.43.25-.89.48-1.38.71-1,.45-2.12.85-3.34,1.19-.32.09-.65.17-.99.25-1.17.28-2.42.5-3.72.65-.6.07-1.21.13-1.82.17-.49.03-.98.06-1.48.07-.38.01-.77.02-1.15.02-.06,0-.13,0-.19,0-.45,0-.89-.01-1.33-.03-.43-.02-.85-.04-1.26-.07-.41-.03-.81-.06-1.21-.1-.4-.04-.8-.09-1.2-.14-.4-.05-.8-.11-1.19-.18-.41-.07-.81-.14-1.21-.23-.44-.09-.86-.19-1.28-.29-.47-.12-.93-.25-1.37-.38-.56-.17-1.1-.36-1.62-.56-1.57-.61-2.88-1.35-3.87-2.18-7.82-6.5-18.3-12.32-30.82-17.22-4.18-1.63-8.58-3.16-13.19-4.58-3.66-1.13-7.45-2.18-11.36-3.16-2.68-.67-5.43-1.31-8.22-1.91-.38-.08-.75-.17-1.11-.26-.5-.12-.97-.26-1.44-.4-.58-.18-1.14-.37-1.67-.58-3.46-1.36-5.6-3.25-5.6-5.29v29.98c0,2.04,2.14,3.94,5.6,5.29.53.21,1.08.4,1.67.58.46.14.94.28,1.44.4.36.09.73.18,1.11.26,2.79.6,5.53,1.24,8.22,1.91,3.91.98,7.7,2.04,11.36,3.16,4.61,1.42,9.02,2.95,13.19,4.58,12.53,4.9,23,10.72,30.82,17.22.99.83,2.3,1.56,3.87,2.17.51.2,1.05.39,1.62.56.44.14.9.26,1.37.38.41.1.84.2,1.28.29.4.08.8.16,1.21.23.39.07.79.12,1.19.18.39.05.79.1,1.2.14.4.04.8.07,1.21.1.42.03.84.05,1.26.07.44.02.88.03,1.33.03.06,0,.13,0,.19,0,.39,0,.77,0,1.15-.02.5-.01,1-.04,1.48-.07.62-.04,1.23-.1,1.82-.17,1.3-.15,2.55-.37,3.72-.65.34-.08.67-.16.99-.25,1.22-.33,2.34-.73,3.34-1.19.49-.22.95-.46,1.38-.71.34-.2.66-.4.95-.61.22-.16.43-.32.62-.48,1.45-1.21,3-2.39,4.63-3.55,2.33-1.66,4.84-3.26,7.52-4.81,3.38-1.95,7.03-3.82,10.91-5.59,8.06-3.67,17.18-6.91,27.14-9.66,2.75-.76,5.57-1.48,8.45-2.16,1.63-.38,3.27-.76,4.94-1.11.25-.05.49-.11.73-.16.35-.08.69-.17,1.02-.26,1.23-.34,2.35-.74,3.34-1.19.48-.22.93-.45,1.34-.69.33-.19.63-.38.91-.58.25-.18.48-.36.7-.54.19-.17.37-.34.54-.52.16-.17.3-.34.43-.51.12-.17.24-.34.33-.51.1-.17.18-.35.25-.52.07-.18.12-.36.16-.54.03-.16.05-.32.06-.49,0-.04,0-.07,0-.11v-29.98s0,.07,0,.11c0,.16-.03.33-.06.49Z"/>
        <path class="cls-4" d="m177.95,81.8c-.04.18-.09.36-.16.54-.07.18-.15.35-.25.52-.1.17-.21.34-.33.51-.13.17-.27.34-.43.51-.16.18-.34.35-.54.52-.21.19-.45.37-.7.54-.28.2-.59.4-.91.58-.41.24-.86.47-1.34.68-.99.45-2.11.85-3.34,1.19-.33.09-.67.18-1.02.26-.24.06-.48.11-.73.17-1.66.36-3.31.73-4.94,1.11-2.88.68-5.7,1.4-8.45,2.16-9.97,2.74-19.08,5.99-27.14,9.66-3.89,1.77-7.54,3.64-10.91,5.59-2.68,1.55-5.19,3.15-7.52,4.81-1.63,1.16-3.17,2.34-4.63,3.55-.19.16-.4.32-.62.48-.3.21-.61.41-.95.61-.43.25-.89.48-1.38.71-1,.45-2.12.85-3.34,1.19-.32.09-.65.17-.99.25-1.17.28-2.42.5-3.72.65-.6.07-1.21.13-1.82.17-.49.03-.98.06-1.48.07-.38.01-.77.02-1.15.02-.06,0-.13,0-.19,0-.45,0-.89-.01-1.33-.03-.43-.02-.85-.04-1.26-.07-.41-.03-.81-.06-1.21-.1-.4-.04-.8-.09-1.2-.14-.4-.05-.8-.11-1.19-.18-.41-.07-.81-.14-1.21-.23-.44-.09-.86-.19-1.28-.29-.47-.12-.93-.25-1.37-.38-.56-.17-1.1-.36-1.62-.56-1.57-.61-2.88-1.35-3.87-2.18-7.82-6.5-18.3-12.32-30.82-17.22-4.18-1.63-8.58-3.16-13.19-4.58-3.66-1.13-7.45-2.18-11.36-3.16-2.68-.67-5.43-1.31-8.22-1.91-.38-.08-.75-.17-1.11-.26-.5-.12-.97-.26-1.44-.4-.58-.18-1.14-.37-1.67-.58-3.46-1.36-5.6-3.25-5.6-5.29v29.35c0,2.04,2.14,3.94,5.6,5.29.53.21,1.08.4,1.67.58.46.14.94.28,1.44.4.36.09.73.18,1.11.26,2.79.6,5.53,1.24,8.22,1.91,3.91.98,7.7,2.04,11.36,3.16,4.61,1.42,9.02,2.95,13.19,4.58,12.53,4.9,23,10.72,30.82,17.22.99.83,2.3,1.56,3.87,2.17.51.2,1.05.39,1.62.56.44.14.9.26,1.37.38.41.1.84.2,1.28.29.4.08.8.16,1.21.23.39.07.79.12,1.19.18.39.05.79.1,1.2.14.4.04.8.07,1.21.1.42.03.84.05,1.26.07.44.02.88.03,1.33.03.06,0,.13,0,.19,0,.39,0,.77,0,1.15-.02.5-.01,1-.04,1.48-.07.62-.04,1.23-.1,1.82-.17,1.3-.15,2.55-.37,3.72-.65.34-.08.67-.16.99-.25,1.22-.33,2.34-.73,3.34-1.19.49-.22.95-.46,1.38-.71.34-.2.66-.4.95-.61.22-.16.43-.32.62-.48,1.45-1.21,3-2.39,4.63-3.55,2.33-1.66,4.84-3.26,7.52-4.81,3.38-1.95,7.03-3.82,10.91-5.59,8.06-3.67,17.18-6.91,27.14-9.66,2.75-.76,5.57-1.48,8.45-2.16,1.63-.38,3.27-.76,4.94-1.11.25-.05.49-.11.73-.16.35-.08.69-.17,1.02-.26,1.23-.34,2.35-.74,3.34-1.19.48-.22.93-.45,1.34-.69.33-.19.63-.38.91-.58.25-.18.48-.36.7-.54.19-.17.37-.34.54-.52.16-.17.3-.34.43-.51.12-.17.24-.34.33-.51.1-.17.18-.35.25-.52.07-.18.12-.36.16-.54.03-.16.05-.32.06-.49,0-.04,0-.07,0-.11v-29.35s0,.07,0,.11c0,.16-.03.33-.06.49Z"/>
        <path class="cls-3" d="m169.15,44.11c-26.46,5.69-48.35,14.9-61.63,25.92-3.88,3.25-10.76,5.2-18.38,5.2s-14.76-1.95-18.67-5.21c-13.27-11.02-35.16-20.22-61.62-25.91-3.68-.78-6.63-2-8.86-3.51v30.16c0,2.04,2.14,3.94,5.6,5.29.53.21,1.08.4,1.67.58.46.14.94.28,1.44.4.36.09.73.18,1.11.26,2.79.6,5.53,1.24,8.22,1.91,3.91.98,7.7,2.04,11.36,3.16,4.61,1.42,9.02,2.95,13.19,4.58,12.53,4.9,23,10.72,30.82,17.22.99.83,2.3,1.56,3.87,2.17.51.2,1.05.39,1.62.56.44.14.9.26,1.37.38.41.1.84.2,1.28.29.4.08.8.16,1.21.23.39.07.79.12,1.19.18.39.05.79.1,1.2.14.4.04.8.07,1.21.1.42.03.84.05,1.26.07.44.02.88.03,1.33.03.06,0,.13,0,.19,0,.39,0,.77,0,1.15-.02.5-.01,1-.04,1.48-.07.62-.04,1.23-.1,1.82-.17,1.3-.15,2.55-.37,3.72-.65.34-.08.67-.16.99-.25,1.22-.33,2.34-.73,3.34-1.19.49-.22.95-.46,1.38-.71.34-.2.66-.4.95-.61.22-.16.43-.32.62-.48,1.45-1.21,3-2.39,4.63-3.55,2.33-1.66,4.84-3.26,7.52-4.81,3.38-1.95,7.03-3.82,10.91-5.59,8.06-3.67,17.18-6.91,27.14-9.66,2.75-.76,5.57-1.48,8.45-2.16,1.63-.38,3.27-.76,4.94-1.11.25-.05.49-.11.73-.16.35-.08.69-.17,1.02-.26,1.23-.34,2.35-.74,3.34-1.19.48-.22.93-.45,1.34-.69.33-.19.63-.38.91-.58.25-.18.48-.36.7-.54.19-.17.37-.34.54-.52.16-.17.3-.34.43-.51.12-.17.24-.34.33-.51.1-.17.18-.35.25-.52.07-.18.12-.36.16-.54.03-.16.05-.32.06-.49,0-.04,0-.07,0-.11v-30.12c-2.23,1.56-5.18,2.78-8.86,3.57Z"/>
        <path class="cls-3" d="m76.33,63c1.84,1.55,6.51,3.09,12.81,3.09s10.76-1.6,12.53-3.08c14.62-12.14,37.29-21.76,65.57-27.84,3.17-.68,4.93-1.61,5.75-2.22-.76-.39-2.54-1.35-5.75-2.03-28.29-6.08-50.96-15.71-65.57-27.83-1.82-1.53-6.48-3.07-12.81-3.09-6.1.02-10.77,1.62-12.53,3.08C61.72,15.22,39.05,24.84,10.77,30.92c-3.05.65-4.79,1.54-5.66,2.14.93.63,2.78,1.49,5.65,2.11,28.29,6.08,50.96,15.7,65.56,27.83Z"/>
      </g>
    </g>
  </g>
</svg>